inDegrees=no
num_controls=7
num_derivatives=13
num_iterations=105
num_multipliers=7
num_parameters=0
num_slacks=7
num_states=26
objective=0.474060
objective_accelerations=0.014658
objective_balance=0.000611
objective_effort=0.014347
objective_height=0.439202
objective_ligament=0.005243
solver_duration=1252.856958
status=Solve_Succeeded
success=true
DataType=double
version=3
OpenSimVersion=4.5
endheader
time	/jointset/ground_pelvis/pelvis_tilt/value	/jointset/ground_pelvis/pelvis_tx/value	/jointset/ground_pelvis/pelvis_ty/value	/jointset/hip_r/hip_flexion_r/value	/jointset/hip_r/hip_adduction_r/value	/jointset/hip_r/hip_rotation_r/value	/jointset/back/lumbar_extension/value	/jointset/patellofemoral_r/patellar_flexion_r/value	/jointset/knee_r/knee_flexion_r/value	/jointset/knee_r/knee_adduction_r/value	/jointset/knee_r/knee_rotation_r/value	/jointset/ankle_r/ankle_angle_r/value	/jointset/subtalar_r/subtalar_angle_r/value	/jointset/ground_pelvis/pelvis_tilt/speed	/jointset/ground_pelvis/pelvis_tx/speed	/jointset/ground_pelvis/pelvis_ty/speed	/jointset/hip_r/hip_flexion_r/speed	/jointset/hip_r/hip_adduction_r/speed	/jointset/hip_r/hip_rotation_r/speed	/jointset/back/lumbar_extension/speed	/jointset/patellofemoral_r/patellar_flexion_r/speed	/jointset/knee_r/knee_flexion_r/speed	/jointset/knee_r/knee_adduction_r/speed	/jointset/knee_r/knee_rotation_r/speed	/jointset/ankle_r/ankle_angle_r/speed	/jointset/subtalar_r/subtalar_angle_r/speed	/forceset/tau_hip_flexion_r	/forceset/tau_hip_adduction_r	/forceset/tau_hip_rotation_r	/forceset/tau_knee_flexion_r	/forceset/tau_ankle_angle_r	/forceset/tau_subtalar_angle_r	/forceset/tau_lumbar_extension	lambda_cid13_p0	lambda_cid14_p0	lambda_cid14_p1	lambda_cid14_p2	lambda_cid14_p3	lambda_cid14_p4	lambda_cid14_p5	/jointset/ground_pelvis/pelvis_tilt/accel	/jointset/ground_pelvis/pelvis_tx/accel	/jointset/ground_pelvis/pelvis_ty/accel	/jointset/hip_r/hip_flexion_r/accel	/jointset/hip_r/hip_adduction_r/accel	/jointset/hip_r/hip_rotation_r/accel	/jointset/back/lumbar_extension/accel	/jointset/patellofemoral_r/patellar_flexion_r/accel	/jointset/knee_r/knee_flexion_r/accel	/jointset/knee_r/knee_adduction_r/accel	/jointset/knee_r/knee_rotation_r/accel	/jointset/ankle_r/ankle_angle_r/accel	/jointset/subtalar_r/subtalar_angle_r/accel	gamma_cid13_p0	gamma_cid14_p0	gamma_cid14_p1	gamma_cid14_p2	gamma_cid14_p3	gamma_cid14_p4	gamma_cid14_p5
1.5	0.114400901285646	0.109078305894684	0.919784642422815	0.2228130265188231	-0.2198181592260912	-0.1999546069466001	-0.5531622393933688	0.4728267435508272	0.472826743551002	0.05108016376045964	0.1739466223311212	0.2028800030835753	0.1102211727817601	-0.08397099230697629	0.08184287995585994	0.08465243452683208	-0.4171659002278103	0.002057997560796922	-0.1252612592620542	0.7974147371086302	-0.7354765974243112	-0.7354765974243596	0.1789810304757555	0.0004224065207379978	-0.2834798882189851	-0.09388450637686604	-0.02365621190534216	0.01197040126478896	0.008462182042362491	-0.2192923072480334	-0.008786068815163446	-0.03150131770107943	0.1232227634680641	-28.94843978270322	-48.2873149155404	-18.19831591074178	-1.174289659690746	4.387228810087922	-654.8560051685167	48.14638466218173	-0.1494158457424707	0.03715494530034796	-0.09150002434752788	-0.05118385917494513	-0.01011019072743885	-0.1692202955933549	0.5599245799000043	-0.3489404053692624	-0.3489404053692606	0.1270061571838193	-0.02121940452816602	-0.186569459085579	-0.0356545139318124	2.188046115572844e-08	1.209147511557627e-08	-1.444796311025453e-07	1.996193991096296e-07	1.024612464373836e-08	2.735842312103319e-08	-2.099582107781965e-07
1.51	0.1135538532192332	0.1098984599545442	0.9206264351806331	0.2186393234166637	-0.2197984350080656	-0.2012152860396019	-0.5451611618237989	0.4654555832096077	0.4654555832099039	0.05287694791935425	0.1739499155873402	0.2000361467866372	0.1092801565833472	-0.08542064508135325	0.08217400343070418	0.08369168515832753	-0.4175203489484787	0.001882003674918493	-0.126854329999187	0.8026882294454711	-0.7386491588750835	-0.7386491588750069	0.1803646855012566	0.0002345707562343043	-0.2852537110583397	-0.09431179834599913	-0.02059770804291493	0.01091071284367529	0.008215797516804593	-0.2186672352855918	-0.00640338976557388	-0.03205723162733205	0.1199189489695693	-29.08525961953334	-47.50160626106412	-18.27422653427442	-1.194113999480336	4.199235243538494	-653.9674179470228	48.19937218511775	-0.1400423242740845	0.02900390924054571	-0.1005203902873894	-0.01941813356137001	-0.02205030458243929	-0.151280074697098	0.4941794546505583	-0.285471917950515	-0.2854719179314407	0.1423700709639205	-0.01778115924165711	-0.1671360675524071	-0.04522655102456707	2.293229235901521e-08	1.289474341805912e-08	-1.547094269379898e-07	2.056640506073073e-07	1.056434894591825e-08	3.169174102409241e-08	-2.199076731519184e-07
1.52	0.112692848158905	0.1107215078212883	0.9214581888453268	0.2144637072762944	-0.2197806119922879	-0.2024912817623705	-0.5371107257520468	0.4580558856733735	0.4580558856735582	0.05468723360765624	0.1739512873865867	0.1971756827870745	0.1083350754627222	-0.08676239109534027	0.08242164133266398	0.08264461590189338	-0.4175485078710562	0.001677757106439637	-0.1283245852132989	0.8072864375451699	-0.7411840364466211	-0.7411840364464193	0.1816813363559818	3.811511854197335e-05	-0.2868014287453607	-0.09469749081995174	-0.01753920418062987	0.009851024422595335	0.007969412991469658	-0.2180421633232406	-0.004020710716016907	-0.03261314555355413	0.1166151344709735	-29.21482862337012	-46.71776753039076	-18.34877594269378	-1.216084336674752	4.006785478125317	-653.1109311226068	48.27909959628325	-0.1278344936652251	0.02045783072447389	-0.1087640019335274	0.0140741004428376	-0.01576072724780045	-0.1446571909894317	0.4248677324707956	-0.2214036295217077	-0.2214036295217086	0.1136053230289533	-0.02294337916538086	-0.1413484286173444	-0.02733461489559629	2.40836218797448e-08	1.371631977732556e-08	-1.663066213719771e-07	2.110586129026929e-07	1.09643553286086e-08	3.626788073727022e-08	-2.29990646862089e-07
1.53	0.1118190095957504	0.1115466166275464	0.922279062559707	0.2102893771256943	-0.2197649050438867	-0.2037815244528697	-0.529017752808506	0.450633984364254	0.4506339843645454	0.05651015242206698	0.1739507206016387	0.1943008857205878	0.1073864458007354	-0.08798733488090345	0.08258616638561067	0.08151700049650179	-0.417260669861971	0.001466346531433281	-0.1297140034651878	0.8111931426737227	-0.7430880256575084	-0.7430880256573301	0.1828702740166889	-0.0001498431700496042	-0.2881164118408021	-0.09501001851144508	-0.01441774730672643	0.008711592843147277	0.007728460217414469	-0.2175508116581747	-0.001467652532274891	-0.03322338943957168	0.1132750375992507	-29.33701418138704	-45.88597173770382	-18.44234136647924	-1.230662401911257	3.784912637430171	-652.3008997611141	48.35085261919266	-0.1171251937645832	0.01235915778577206	-0.11672054371968	0.0446680273567925	-0.02340561282618387	-0.1345531592604892	0.3563206277316052	-0.1586718117460109	-0.1586718117492979	0.1167043840708296	-0.01644042150378092	-0.1203329141850324	-0.03045168532376011	2.534066836275737e-08	1.455734844692459e-08	-1.793566768169163e-07	2.157624554206432e-07	1.14512551718413e-08	4.110201862369904e-08	-2.402154763672364e-07
1.54	0.1109334614202183	0.1123729525473777	0.9230882680732558	0.2061196312304376	-0.2197512270792499	-0.2050853551292937	-0.5208891630687426	0.4431962881141666	0.4431962881143052	0.05834399389239529	0.1739483305602423	0.19141418689032	0.1064352428940272	-0.08910431357705011	0.08266706404729854	0.08031097573563645	-0.4166316568042411	0.001271960348446491	-0.1310421823959701	0.81440979678953	-0.7443430246633403	-0.7443430246631855	0.1838658675365636	-0.0003265361705321716	-0.28918178150333	-0.09521213976483926	-0.01129629043296579	0.00757216126370208	0.007487507443366987	-0.2170594599931902	0.001085405651432513	-0.03383363332559796	0.1099349407274305	-29.45173277086076	-45.05523880999571	-18.5344510150207	-1.247348118139499	3.557609079557893	-651.5111535312217	48.4485341600481	-0.1062414757825847	0.003732352473715375	-0.124445873028359	0.08230911017134666	-0.01235584884416324	-0.1324093267683988	0.2868575299209894	-0.09160558851003212	-0.09160558851003199	0.074936494862826	-0.02069032154305061	-0.09142574203316467	-0.005253327275649375	2.65313906122379e-08	1.539473084915226e-08	-1.914712407059611e-07	2.200533576464812e-07	1.182849688823489e-08	4.582242649445537e-08	-2.495141504575457e-07
1.55	0.1100373393862181	0.1131996763029233	0.9238850461012942	0.2019577794738706	-0.2197394301107182	-0.2064020052581477	-0.5127319370225112	0.435749224890228	0.4357492248904486	0.06018694024394149	0.1739441067814526	0.1885180478484004	0.1054825228943209	-0.09010109944509877	0.08266321385308971	0.07903301689345534	-0.4156830555234224	0.001088202437445704	-0.1322574802150411	0.8169170104978424	-0.7449614941665113	-0.7449614941664519	0.1847014538406212	-0.0005320359185278696	-0.2900054480547949	-0.09531732293337083	-0.008138109128542449	0.006369757407743475	0.00725475524156738	-0.2166645803677942	0.003731357260573625	-0.03450174216479709	0.1065786383904658	-29.55893263151003	-44.20335459831326	-18.65079145061533	-1.256968343198068	3.328309888920937	-650.7878066908822	48.52365637489721	-0.09354711926490757	-0.004612240127170061	-0.1312022445430019	0.1094829502274364	-0.02125344279733358	-0.1114948083229204	0.2148929955570007	-0.0307543905074993	-0.03075439052166056	0.08456406840964853	-0.02251349207919894	-0.07174515620364191	-0.01097614289622714	2.764569581004019e-08	1.622791211723467e-08	-2.025079556284323e-07	2.238684808401028e-07	1.207939337153123e-08	5.041179760802383e-08	-2.577457324394546e-07
1.56	0.1091318194981824	0.1140259278495772	0.9246686982699637	0.1978070831927622	-0.2197294442573871	-0.2077298893249718	-0.5045531908983412	0.4282992196195114	0.428299219619567	0.06203758133259432	0.1739374212670451	0.1856148905320737	0.1045291859966814	-0.09098388439119927	0.08257262226896427	0.07768580386185991	-0.4144005617149739	0.0009097373036499048	-0.1332889699879841	0.8187138123768789	-0.7449314340411519	-0.7449314340411879	0.1854048149539692	-0.000818883292564378	-0.2905854363862658	-0.09533551935207077	-0.004979927824250116	0.005167353551808022	0.007022003039762902	-0.2162697007424656	0.006377308869694352	-0.03516985100397235	0.1032223360534032	-29.65858492880463	-43.35168115988185	-18.76560861926545	-1.26861376376009	3.092619510335658	-650.0722203212622	48.62348577095094	-0.08344129139352471	-0.01361592550861282	-0.1382967109113033	0.1490876156969293	-0.0112972934034386	-0.09564771754305688	0.1447751640651076	0.03810033719660796	0.03810033719660796	0.04849145672124663	-0.0369598467506864	-0.04269009803288438	0.01214402269079752	2.872168687775676e-08	1.69855598332298e-08	-2.137720186890694e-07	2.271064386611521e-07	1.239460191044256e-08	5.511848580431734e-08	-2.658831192034236e-07
